<?xml version="1.0" encoding="UTF-8" standalone="no"?>
<svg
   xmlns:dc="http://purl.org/dc/elements/1.1/"
   xmlns:cc="http://creativecommons.org/ns#"
   xmlns:rdf="http://www.w3.org/1999/02/22-rdf-syntax-ns#"
   xmlns:svg="http://www.w3.org/2000/svg"
   xmlns="http://www.w3.org/2000/svg"
   xmlns:sodipodi="http://sodipodi.sourceforge.net/DTD/sodipodi-0.dtd"
   xmlns:inkscape="http://www.inkscape.org/namespaces/inkscape"
   width="210mm"
   height="297mm"
   viewBox="0 0 210 297"
   version="1.1"
   id="svg1269"
   inkscape:version="1.0.2 (1.0.2+r75+1)"
   sodipodi:docname="drawing.svg">
  <defs
     id="defs1263" />
  <sodipodi:namedview
     id="base"
     pagecolor="#ffffff"
     bordercolor="#666666"
     borderopacity="1.0"
     inkscape:pageopacity="0.0"
     inkscape:pageshadow="2"
     inkscape:zoom="0.35"
     inkscape:cx="400"
     inkscape:cy="560"
     inkscape:document-units="mm"
     inkscape:current-layer="layer1"
     inkscape:document-rotation="0"
     showgrid="false"
     inkscape:window-width="1366"
     inkscape:window-height="704"
     inkscape:window-x="0"
     inkscape:window-y="27"
     inkscape:window-maximized="1" />
  <metadata
     id="metadata1266">
    <rdf:RDF>
      <cc:Work
         rdf:about="">
        <dc:format>image/svg+xml</dc:format>
        <dc:type
           rdf:resource="http://purl.org/dc/dcmitype/StillImage" />
        <dc:title></dc:title>
      </cc:Work>
    </rdf:RDF>
  </metadata>
  <g
     inkscape:label="Layer 1"
     inkscape:groupmode="layer"
     id="layer1">
    <g
       style="fill:#008484;fill-opacity:1;stroke:#008484;stroke-width:3.93701;stroke-linecap:round;stroke-linejoin:round;stroke-opacity:1"
       id="g932"
       transform="matrix(0.00252458,0,0,0.00253985,-93.748178,80.7127)">
      <path
         style="fill:#008484;fill-opacity:1;fill-rule:evenodd;stroke:#008484;stroke-width:3.93701;stroke-linecap:round;stroke-linejoin:round;stroke-opacity:1"
         d="m 74040.4,28203.6 3.7,4.4 1.9,10.2 0.8,18.5 0.1,22.4 -0.1,26.8 -0.9,17 -2.5,9.8 -4.7,5.5 -7.7,3.7 -1.3,0.5 -17.2,6.9 17.2,6 13.1,7.8 4.1,13.5 v 3 18.2 h -40.6 l -22.1,-0.3 -12.2,-1.8 -5.3,-3.9 -1.1,-6.5 2.8,-9 10.8,-3.7 6.7,-0.4 20.4,-0.7 -20.4,-6.5 -15.6,-8 -4.1,-9.7 7.8,-9.9 2.5,-1.6 7.6,-5 -3.3,-1.5 -4.3,-0.1 -8.9,-5 -2,-10.8 1.1,-9.7 5.8,-4.6 13.6,-1.3 7.6,-0.1 17.6,-0.8 8.4,-3.4 2.2,-7.4 v -0.9 l -1.8,-7.8 -7.7,-3.7 -16.6,-1 h -2.1 l -17.6,-0.8 -8.3,-3.4 -2.2,-7.4 v -0.9 l 1.8,-7.8 7.7,-3.7 16.6,-1 h 2 l 17.6,-0.9 8.4,-3.4 2.2,-7.4 v -0.9 l 4.4,-10.4 8.1,-2.1 z"
         id="path920" />
      <path
         style="fill:#008484;fill-opacity:1;fill-rule:evenodd;stroke:#008484;stroke-width:3.93701;stroke-linecap:round;stroke-linejoin:round;stroke-opacity:1"
         d="m 74914.7,25190.7 9.6,16 14.8,25 19.4,33 23.5,40.1 27,46.2 30,51.3 32.4,55.7 34.3,58.9 4.2,7.4 194.6,334.8 -199,1.6 -198.9,1.7 -66.9,115.2 -19.8,34.5 -17.5,31 -14.2,25.9 -10.1,19.1 -4.9,10.6 -0.4,1.3 3.1,7.3 8.4,16.5 12.9,23.8 16.6,29.5 19.1,33.6 6.8,11.7 66.9,115.2 397.8,3.3 -194.4,334.8 -34.5,59.3 -32.6,56.1 -30.4,51.9 -27.4,46.9 -23.9,40.9 -20,33.9 -15.4,26.1 -10.3,17.2 -4.6,7.4 -0.1,0.2 -3.8,-4.5 -9.6,-14.6 -14.9,-23.8 -19.8,-32.4 -24.2,-40 -28.1,-47 -31.5,-53.2 -34.6,-58.5 -37.1,-63.1 -39.2,-67 -27,-46.4 -40.3,-69.4 -38.5,-66.4 -36.1,-62.6 -33.3,-58 -30.1,-52.5 -26.4,-46.3 -22.2,-39.3 -17.5,-31.4 -12.5,-22.7 -6.9,-13.3 -1.3,-3.2 3.1,-7.1 8.8,-16.7 14,-25.5 18.6,-33.2 22.6,-39.9 26.2,-45.9 29.2,-50.6 31.5,-54.7 33.3,-57.5 34.7,-59.6 35.3,-60.7 35.5,-60.7 35.2,-59.9 34.1,-58.1 32.7,-55.3 30.5,-51.5 28,-46.9 24.7,-41.3 21,-34.7 16.7,-27.1 11.8,-18.6 6.4,-9.2 1,-0.8 z"
         id="path922" />
      <path
         style="fill:#008484;fill-opacity:1;fill-rule:evenodd;stroke:#008484;stroke-width:3.93701;stroke-linecap:round;stroke-linejoin:round;stroke-opacity:1"
         d="m 74909.5,24292.6 9.2,15 14.6,24.5 19.7,33 24.2,40.9 28.3,48.1 32,54.5 35.3,60.2 38.1,65.1 40.6,69.4 42.5,72.8 44.2,75.5 45.2,77.6 45.9,78.8 46.2,79.3 46.1,79.1 45.5,78.2 44.4,76.5 43.1,74.1 41.1,71 38.9,67 36.1,62.4 33,57.1 29.4,51 25.4,44.2 20.9,36.6 16.1,28.3 10.8,19.2 5,9.5 0.3,0.8 -5.3,5.7 -16.3,4.6 -27.4,3.7 -39,2.8 -50.6,1.9 -62.7,1 -48.6,0.2 h -179 l -237.6,-408.4 -237.6,-408.5 -305.1,524.4 -43.3,74.4 -41.5,71.4 -39.1,67.6 -36.5,63.1 -33.4,57.8 -29.9,51.9 -25.8,45 -21.5,37.6 -16.6,29.3 -11.3,20.3 -5.7,10.5 -0.6,1.4 3.1,6.1 9,16.3 14.4,25.5 19.4,34 23.9,41.9 28.1,48.9 31.8,55.2 35.1,60.8 37.9,65.5 40.4,69.6 42.3,72.8 14,24.2 43,73.9 41.2,70.9 39.1,67.2 36.4,62.7 33.4,57.5 29.9,51.4 26,44.7 21.5,37.1 16.8,28.9 11.5,19.8 5.7,9.9 0.6,1 2.5,-0.4 5.4,-5.9 8.6,-11.9 12.2,-18.4 16,-25.5 20.2,-33.1 24.8,-41.3 29.6,-50 34.7,-59.2 40.3,-68.9 46.2,-79.3 2.9,-5 237.7,-409.1 h 179 l 67.9,0.3 56,1.1 44.9,1.9 34.2,2.7 24.3,3.7 14.9,4.6 6.2,5.6 0.2,2.8 -3.5,7 -9.3,16.9 -14.8,26.2 -19.7,34.7 -24.3,42.4 -28.5,49.4 -32.1,55.7 -35.4,61.2 -38.3,66 -40.6,70.1 -42.7,73.4 -44.2,75.9 -45.3,77.8 -46,78.9 -46.2,79.2 -46,78.9 -45.5,77.7 -44.4,75.9 -42.9,73.3 -41,69.9 -38.7,65.9 -35.9,61 -32.7,55.5 -29.1,49.1 -25,42.2 -20.5,34.3 -15.6,25.8 -10.2,16.6 -4.5,6.6 -0.1,0.1 -3.8,-5.4 -9.7,-15.5 -15.3,-25.3 -20.7,-34.5 -25.5,-43 -30.2,-51 -34.5,-58.5 -38.5,-65.4 -42.1,-71.6 -45.4,-77.5 -48.3,-82.7 -51,-87.3 -53.3,-91.3 -55.3,-94.9 -55.2,-94.9 -56.9,-97.9 -55.1,-94.9 -53.2,-91.5 -50.7,-87.5 -48.1,-82.9 -45.1,-77.7 -41.7,-72 -38,-65.7 -34,-58.8 -29.7,-51.4 -25,-43.4 -20,-34.9 -14.7,-25.7 -9.1,-16 -3,-5.7 2.9,-5.8 8.9,-16 14.3,-25.4 19.5,-34.1 24.1,-42.3 28.5,-49.6 32.4,-56.4 35.9,-62.4 39,-67.7 41.7,-72.3 44.1,-76.4 46,-79.6 47.5,-82.2 48.7,-84.1 49.4,-85.4 49.8,-85.9 49.7,-85.8 49.2,-84.9 48.4,-83.4 47.2,-81.2 45.5,-78.4 43.5,-74.8 41,-70.5 38.2,-65.6 35,-60 31.4,-53.6 27.3,-46.7 22.9,-39 18.1,-30.6 12.9,-21.6 7.3,-11.9 1.5,-2.1 z"
         id="path924" />
      <path
         style="fill:#008484;fill-opacity:1;fill-rule:evenodd;stroke:#008484;stroke-width:3.93701;stroke-linecap:round;stroke-linejoin:round;stroke-opacity:1"
         d="m 74046.1,28170.3 31.4,14.4 24.9,21.6 18.1,27.1 10.7,30.6 3.1,32.2 -5,32 -13.5,29.9 -22.3,25.9 -31.5,20 -4,1.7 -25,6.6 -29.4,2.4 -27.9,-1.9 -15.4,-4.1 -29.7,-17.8 -25.6,-27 -6.7,-10 -11.8,-30.2 -3.3,-35.1 1.4,-9.7 h 19.4 l 1.4,32.3 13.4,31.3 11,14.5 28.1,24.7 30.3,12.4 32.6,0.2 29.8,-9.5 28.9,-19.1 19.7,-25 10.7,-28.9 1.7,-30.4 -6.9,-29.7 -15.6,-26.8 -23.9,-21.7 -28.9,-13.3 -33.2,-5 -29.9,6.4 -28.3,18.4 -8.3,7.7 -22.2,29.7 -10.4,31.8 h -19.4 l 3.7,-25.7 13.3,-31.7 0.7,-1.1 25,-28.4 32.3,-18.5 38.6,-8.1 10.3,-0.3 z"
         id="path926" />
      <path
         style="fill:#008484;fill-opacity:1;fill-rule:evenodd;stroke:#008484;stroke-width:3.93701;stroke-linecap:round;stroke-linejoin:round;stroke-opacity:1"
         d="m 74910.6,23406 9.5,15.4 15,24.9 20.2,33.8 24.9,42.1 29.3,49.8 33.4,56.7 37.1,63.1 40.3,68.8 43.2,73.8 45.8,78.3 47.9,82.1 49.8,85.2 51.1,87.7 52.2,89.5 52.9,90.8 53.2,91.4 53.1,91.3 52.7,90.6 51.8,89.3 50.7,87.3 49.1,84.6 47.1,81.4 44.9,77.5 42.2,73 39.1,67.8 35.7,61.9 31.9,55.5 27.7,48.3 23.2,40.6 18.3,32.3 13,23.2 7.3,13.5 1.6,3.4 -2.2,13.1 -5.8,21.9 -8.6,27.9 -10.3,30.8 -11.1,31.1 -10.9,28.4 -9.8,22.9 -1.7,3.4 -32.2,54.9 -40.3,49.6 -45.5,40.9 -6.6,4.9 -19.2,13.3 -15,9.5 -8.2,4.1 h -0.7 l -3.4,-5.6 -9.2,-15.8 -14.9,-25.5 -20.2,-34.5 -25.1,-42.9 -29.6,-50.9 -33.9,-58.2 -37.7,-64.8 -41.3,-71 -44.6,-76.5 -47.3,-81.4 -49.9,-85.8 -52.1,-89.5 -53.9,-92.7 -19.4,-33.3 -54.5,-93.7 -52.8,-90.8 -50.8,-87.3 -48.4,-83.1 -45.7,-78.5 -42.6,-73.1 -39.2,-67.3 -35.4,-60.8 -31.4,-53.7 -26.9,-46.1 -22.1,-37.7 -17,-29 -11.5,-19.5 -5.7,-9.5 -0.6,-0.9 -3.5,4.9 -9.3,15 -14.9,24.5 -20,33.4 -24.8,41.6 -29.1,49.1 -33.1,56 -36.7,62.2 -39.8,67.8 -42.7,72.7 -45.2,77 -47.2,80.5 -48.8,83.5 -50.2,85.7 -51.1,87.4 -51.5,88.4 -51.7,88.6 -51.5,88.3 -50.8,87.3 -49.9,85.7 -48.4,83.3 -46.6,80.3 -44.5,76.7 -41.9,72.3 -39,67.5 -35.7,61.8 -32,55.5 -27.9,48.7 -23.4,41 -18.6,32.8 -13.3,23.9 -7.8,14.3 -1.9,4.1 3.1,6.4 9,16.5 14.6,26 19.7,34.6 24.4,42.8 28.9,50.2 32.8,57 36.4,63.2 39.7,68.5 42.6,73.4 44.9,77.6 47.1,81 48.8,83.9 50.1,86.1 51,87.5 51.5,88.5 51.8,88.6 51.5,88.2 50.9,87.1 49.9,85.3 48.5,82.9 46.8,79.8 44.6,76.1 42.1,71.6 39.2,66.6 35.9,60.9 32.3,54.6 28.1,47.5 23.8,39.8 18.9,31.4 13.7,22.5 8.1,12.8 2.2,2.9 3.6,-5.9 9.5,-16.1 15.2,-25.8 20.4,-34.8 25.3,-43.3 29.8,-51.1 34.1,-58.4 38,-65.1 41.4,-71.2 44.7,-76.7 47.5,-81.6 50,-85.9 52.2,-89.6 53.9,-92.8 19,-32.7 54.5,-93.7 52.8,-90.7 50.7,-87.2 48.3,-83 45.5,-78.3 42.5,-73 39,-67.1 35.3,-60.5 31.2,-53.5 26.7,-45.8 21.9,-37.6 16.8,-28.7 11.3,-19.3 5.4,-9.2 0.5,-0.8 5.7,2.3 13.3,8.1 18.2,12.3 5.9,4.2 43.8,36.7 37.9,43.6 32.7,52 28.5,61.6 23.5,67.8 9.3,31.8 5.3,22.3 1.7,15.1 -1.4,10.2 -0.8,2.2 -3.9,6.9 -9.7,17.1 -15.3,26.5 -20.4,35.4 -25.1,43.5 -29.6,51.1 -33.6,57.9 -37.2,64.2 -40.5,69.8 -43.3,74.7 -45.9,79 -48.1,82.7 -49.8,85.6 -51.1,88.1 -52.2,89.8 -52.8,90.8 -53.1,91.2 -53,91.1 -52.5,90.1 -51.6,88.7 -50.3,86.5 -48.8,83.7 -46.8,80.2 -44.3,76.2 -41.7,71.4 -38.5,66 -35,60 -31.2,53.3 -26.9,46 -22.2,38 -17.3,29.4 -11.9,20.2 -6.2,10.2 -0.7,1.2 -3.6,-4.9 -9.5,-15.3 -15.3,-25.1 -20.8,-34.6 -26,-43.6 -30.9,-52.2 -35.6,-60.2 -40,-67.9 -44.2,-75.1 -48,-81.7 -51.6,-88.1 -55,-93.8 -58,-99.2 -60.9,-104 -63.3,-108.6 -65.7,-112.5 -67.6,-116 -69.4,-119.1 -26.2,-45.1 -786.9,-1352.1 785.1,-1349.1 69.9,-120 68.2,-117.2 66.4,-113.9 64.2,-110.1 61.7,-105.9 59,-101.2 56.1,-96 52.8,-90.5 49.3,-84.3 45.6,-77.8 41.4,-70.9 37.2,-63.4 32.6,-55.5 27.7,-47.1 22.6,-38.3 17.2,-29 11.6,-19.3 5.6,-9 0.5,-0.7 z"
         id="path928" />
      <path
         style="fill:#008484;fill-opacity:1;fill-rule:evenodd;stroke:#008484;stroke-width:3.93701;stroke-linecap:round;stroke-linejoin:round;stroke-opacity:1"
         d="m 76497.5,23321.7 h 44.1 l 1594.8,0.1 801,1376.6 70.7,121.4 69,118.7 67.2,115.5 64.9,111.8 62.6,107.7 59.9,103.1 56.9,98 53.6,92.6 50.2,86.5 46.5,80.1 42.4,73.2 38.1,65.9 33.5,58 28.8,49.8 23.6,41 18.3,31.8 12.6,22.2 6.8,12.1 1.1,2.1 v 2.6 l -1.4,4.7 -2.9,7.3 -4.8,10.2 -6.7,13.6 -9,17.2 -11.5,21.2 -14.1,25.7 -17,30.5 -20.1,35.7 -23.4,41.3 -26.9,47.2 -30.7,53.6 -34.6,60.2 -38.9,67.4 -43.2,74.8 -47.8,82.7 -52.7,90.8 -57.7,99.5 -62.9,108.5 -68.5,117.8 -74.1,127.5 -80.1,137.7 -72,123.9 -806.7,1386.7 -1594.8,0.2 h -167.2 -155.1 -143.5 l -132.3,-0.1 h -121.6 l -111.4,-0.1 -101.5,-0.1 -92.1,-0.1 -83.2,-0.2 -74.7,-0.1 -66.7,-0.3 -59.1,-0.2 -52,-0.3 -45.3,-0.4 -39,-0.4 -33.3,-0.4 -27.9,-0.5 -23,-0.6 -18.6,-0.6 -14.6,-0.7 -11,-0.7 -7.9,-0.8 -5.3,-0.9 -3.1,-1 -1.3,-1 -0.1,-1.1 3.7,-6.8 9.5,-16.9 15,-26.2 19.9,-34.7 24.5,-42.5 28.7,-49.6 32.3,-55.8 35.5,-61.3 38.4,-66.1 40.7,-70.2 42.6,-73.3 17.5,-30.1 51.8,-89 56.1,-96.4 59.3,-101.9 61.3,-105.3 62.1,-106.8 61.8,-106.3 60.4,-103.8 57.8,-99.4 54,-92.9 49.2,-84.4 8.9,-15.3 41.4,-71.3 39.8,-68.2 37.6,-64.6 34.9,-60 31.9,-54.6 28.3,-48.5 24.3,-41.6 19.9,-33.9 14.9,-25.3 9.4,-16 3.6,-5.8 4.1,-4.1 4.7,1.8 6.5,9.1 9.4,18 7.7,15.8 40.6,70.6 51.7,67.6 61.7,63.7 70.8,59 78.5,53.5 85.2,47.1 90.7,39.9 95.2,31.8 8.2,2.3 60.7,16.6 665,1.9 119.3,0.3 107.1,0.1 95.2,0.1 83.6,-0.2 72.2,-0.3 61.2,-0.4 50.5,-0.6 40.1,-0.7 29.9,-0.9 20,-1 10.6,-1.2 0.6,-0.1 33.1,-15.2 29.1,-25.8 24.6,-35 19,-42.7 12.8,-48.9 5.8,-53.7 0.3,-14.3 -4,-61.6 -11.6,-54.7 -18.8,-46.8 -25.5,-38 -32,-28.1 -10.6,-6.3 -25.8,-13.8 -660.2,-3.2 -660.2,-3.1 -36.4,-13.9 -56.4,-27.1 -52.5,-36.2 -46.4,-43.2 -37.8,-48.2 -18.6,-32.4 -10,-21.4 -6.2,-17.5 -3.3,-17.9 -1.3,-22.6 -0.2,-22.9 0.7,-32.1 2.3,-23.5 4.7,-18.8 5.7,-14.1 19.8,-33.2 26.2,-30.8 29,-24.2 11.3,-6.8 25.5,-13.4 710.4,2.1 119.3,0.3 107.3,0.2 95.7,0.1 h 84.6 l 74,-0.2 63.9,-0.3 54.2,-0.4 45,-0.6 36.3,-0.7 28,-0.8 20.3,-1 13,-1.1 3.8,-0.6 37.3,-13.9 32.3,-24.6 26.6,-34.2 20.4,-42.7 13.6,-50.1 6.1,-56.7 0.3,-16.1 -4,-58.1 -11.6,-52 -18.6,-44.8 -25,-36.6 -30.8,-27.2 -35.9,-16.9 -10.6,-2.6 -9.6,-1.2 -16.8,-1.1 -24.4,-0.9 -32.6,-0.8 -41.1,-0.6 -50.3,-0.5 -59.7,-0.4 -69.7,-0.2 -80.1,-0.1 h -91.1 l -102.5,0.2 -114.3,0.2 -53.2,0.2 -710.5,2.1 -25.5,-13.5 -29,-20.4 -27.7,-28.6 -22.8,-32.7 -6.8,-13.2 -6.9,-17.8 -4.1,-19.4 -2,-25 -0.4,-26.3 0.4,-29.2 1.7,-21 3.9,-17.4 7.1,-18 7.9,-16.7 21,-34.9 28.7,-36.9 32.9,-35.1 33.6,-29.5 16.9,-12 23.2,-13.2 28.1,-13.8 21.9,-9.4 41.8,-16.3 660.2,-3.1 660.2,-3.1 25.9,-13.9 33,-24.6 27.1,-34.8 20.7,-44.2 13.8,-52.3 6.2,-55.6 0.7,-34.4 -1.2,-32.7 -2.9,-26.1 -0.7,-4.2 -13.6,-46 -19.9,-41.1 -24.9,-34.2 -28.5,-25.4 -30.7,-15 -1.4,-0.4 -9.4,-1.2 -18.9,-1 -28.5,-0.9 -38.7,-0.7 -49,-0.6 -59.6,-0.4 -70.6,-0.3 -81.9,-0.1 h -93.4 l -105.3,0.1 -117.5,0.3 -17.5,0.1 -106.5,0.3 -94.7,0.4 -83.7,0.3 -73.4,0.4 -63.8,0.4 -55,0.4 -46.9,0.6 -39.6,0.6 -33,0.7 -27.1,0.8 -21.9,0.9 -17.7,1 -13.9,1.2 -11.1,1.4 -8.8,1.5 -7.5,1.7 -1.1,0.3 -102.3,32.1 -96.4,39.9 -89.5,47.2 -81.8,53.8 -73.2,59.7 -63.8,65.1 -53.5,69.7 -42.4,73.8 -1.6,3.3 -11.3,23.1 -7.6,13.2 -5.3,5 -4.3,-1.7 -2,-2.6 -4.4,-7.2 -10.2,-17.3 -15.7,-26.7 -20.9,-35.6 -25.5,-43.7 -29.9,-51.3 -33.9,-58.1 -37.5,-64.2 -40.7,-69.9 -43.5,-74.7 -46,-79 -48.1,-82.6 -49.8,-85.6 -51.1,-87.8 -52,-89.5 -52.6,-90.5 -52.8,-90.9 -52.7,-90.5 -52,-89.6 -51.1,-88 -49.8,-85.7 -48.1,-82.8 -46,-79.3 -43.5,-75 -40.7,-70.2 -37.5,-64.7 -33.9,-58.5 -30,-51.8 -25.6,-44.2 -20.8,-36.2 -15.8,-27.4 -10.2,-17.9 -4.5,-7.9 -0.1,-0.3 v -1.2 l 1.1,-1 2.8,-1 4.8,-0.9 7.3,-0.9 10.3,-0.7 13.8,-0.7 17.5,-0.6 21.9,-0.6 26.7,-0.5 31.8,-0.5 37.5,-0.4 43.6,-0.3 50.2,-0.3 57.2,-0.3 64.7,-0.2 72.5,-0.2 80.9,-0.2 89.7,-0.1 99,-0.1 108.7,-0.1 h 118.8 129.4 l 140.5,-0.1 h 152 z"
         id="path930" />
    </g>
  </g>
</svg>
